<svg xmlns="http://www.w3.org/2000/svg" xmlns:xlink="http://www.w3.org/1999/xlink" width="200" zoomAndPan="magnify" viewBox="0 0 150 202.499994" height="270" preserveAspectRatio="xMidYMid meet" version="1.0"><defs><g/><clipPath id="id1"><path d="M 0.183594 0 L 149.8125 0 L 149.8125 202 L 0.183594 202 Z M 0.183594 0 " clip-rule="nonzero"/></clipPath><clipPath id="id2"><path d="M 35.453125 31 L 114.757812 31 L 114.757812 102 L 35.453125 102 Z M 35.453125 31 " clip-rule="nonzero"/></clipPath></defs><g clip-path="url(#id1)"><path fill="#393939" d="M 0.183594 0 L 149.816406 0 L 149.816406 202 L 0.183594 202 Z M 0.183594 0 " fill-opacity="1" fill-rule="nonzero"/><path fill="#ffffff" d="M 0.183594 0 L 149.816406 0 L 149.816406 202 L 0.183594 202 Z M 0.183594 0 " fill-opacity="1" fill-rule="nonzero"/><path fill="#393939" d="M 0.183594 0 L 149.816406 0 L 149.816406 202 L 0.183594 202 Z M 0.183594 0 " fill-opacity="1" fill-rule="nonzero"/></g><g clip-path="url(#id2)"><path fill="#00d8ff" d="M 100.605469 53.929688 C 99.789062 53.644531 98.9375 53.378906 98.058594 53.125 C 98.203125 52.539062 98.335938 51.960938 98.453125 51.390625 C 100.382812 42.039062 99.121094 34.503906 94.816406 32.023438 C 90.6875 29.644531 83.933594 32.125 77.113281 38.054688 C 76.457031 38.625 75.800781 39.226562 75.144531 39.859375 C 74.703125 39.441406 74.269531 39.039062 73.832031 38.648438 C 66.683594 32.3125 59.519531 29.640625 55.21875 32.125 C 51.09375 34.511719 49.871094 41.59375 51.609375 50.457031 C 51.777344 51.3125 51.972656 52.1875 52.195312 53.078125 C 51.179688 53.363281 50.199219 53.671875 49.265625 53.996094 C 40.886719 56.914062 35.535156 61.488281 35.535156 66.234375 C 35.535156 71.132812 41.277344 76.050781 50.007812 79.03125 C 50.695312 79.265625 51.410156 79.488281 52.144531 79.695312 C 51.90625 80.65625 51.699219 81.597656 51.523438 82.519531 C 49.871094 91.230469 51.160156 98.144531 55.277344 100.511719 C 59.523438 102.960938 66.65625 100.445312 73.601562 94.382812 C 74.152344 93.902344 74.703125 93.394531 75.253906 92.863281 C 75.96875 93.546875 76.683594 94.199219 77.390625 94.8125 C 84.117188 100.59375 90.761719 102.929688 94.871094 100.554688 C 99.117188 98.097656 100.5 90.667969 98.707031 81.628906 C 98.570312 80.9375 98.410156 80.234375 98.230469 79.519531 C 98.734375 79.371094 99.226562 79.214844 99.703125 79.058594 C 108.777344 76.050781 114.679688 71.199219 114.679688 66.234375 C 114.679688 61.472656 109.15625 56.867188 100.605469 53.929688 Z M 98.640625 75.851562 C 98.207031 75.992188 97.761719 76.132812 97.3125 76.265625 C 96.308594 73.101562 94.957031 69.730469 93.300781 66.25 C 94.882812 62.851562 96.179688 59.527344 97.152344 56.378906 C 97.964844 56.613281 98.75 56.863281 99.507812 57.121094 C 106.832031 59.640625 111.296875 63.367188 111.296875 66.234375 C 111.296875 69.289062 106.476562 73.257812 98.640625 75.851562 Z M 95.386719 82.285156 C 96.183594 86.28125 96.292969 89.894531 95.769531 92.71875 C 95.296875 95.257812 94.347656 96.953125 93.175781 97.628906 C 90.683594 99.070312 85.347656 97.195312 79.597656 92.25 C 78.9375 91.683594 78.273438 91.078125 77.609375 90.4375 C 79.835938 88 82.066406 85.167969 84.242188 82.023438 C 88.066406 81.6875 91.679688 81.128906 94.960938 80.375 C 95.121094 81.023438 95.265625 81.660156 95.386719 82.285156 Z M 62.515625 97.378906 C 60.082031 98.238281 58.140625 98.265625 56.964844 97.589844 C 54.46875 96.148438 53.433594 90.597656 54.847656 83.148438 C 55.011719 82.296875 55.203125 81.421875 55.425781 80.523438 C 58.667969 81.242188 62.257812 81.757812 66.089844 82.066406 C 68.28125 85.144531 70.574219 87.972656 72.886719 90.449219 C 72.382812 90.9375 71.878906 91.402344 71.375 91.835938 C 68.304688 94.519531 65.230469 96.421875 62.515625 97.378906 Z M 51.101562 75.832031 C 47.242188 74.515625 44.054688 72.804688 41.871094 70.933594 C 39.90625 69.253906 38.914062 67.585938 38.914062 66.234375 C 38.914062 63.355469 43.210938 59.683594 50.378906 57.1875 C 51.25 56.882812 52.160156 56.597656 53.101562 56.332031 C 54.09375 59.546875 55.390625 62.914062 56.960938 66.316406 C 55.371094 69.765625 54.054688 73.1875 53.054688 76.445312 C 52.382812 76.25 51.730469 76.046875 51.101562 75.832031 Z M 54.929688 49.808594 C 53.441406 42.214844 54.429688 36.488281 56.914062 35.050781 C 59.5625 33.519531 65.417969 35.703125 71.585938 41.175781 C 71.980469 41.527344 72.378906 41.890625 72.777344 42.269531 C 70.476562 44.738281 68.203125 47.546875 66.035156 50.605469 C 62.3125 50.949219 58.746094 51.503906 55.472656 52.246094 C 55.265625 51.417969 55.082031 50.605469 54.929688 49.808594 Z M 89.066406 58.230469 C 88.285156 56.878906 87.480469 55.558594 86.660156 54.277344 C 89.1875 54.59375 91.605469 55.019531 93.875 55.535156 C 93.195312 57.722656 92.347656 60.003906 91.34375 62.347656 C 90.628906 60.984375 89.867188 59.609375 89.066406 58.230469 Z M 75.144531 44.683594 C 76.707031 46.371094 78.265625 48.257812 79.804688 50.300781 C 78.253906 50.226562 76.6875 50.191406 75.105469 50.191406 C 73.542969 50.191406 71.988281 50.226562 70.449219 50.300781 C 71.984375 48.273438 73.5625 46.390625 75.144531 44.683594 Z M 61.132812 58.253906 C 60.351562 59.609375 59.605469 60.972656 58.898438 62.34375 C 57.914062 60.011719 57.070312 57.714844 56.382812 55.5 C 58.640625 54.996094 61.050781 54.582031 63.558594 54.269531 C 62.726562 55.566406 61.917969 56.894531 61.132812 58.253906 Z M 63.632812 78.4375 C 61.039062 78.148438 58.59375 77.757812 56.335938 77.265625 C 57.035156 75.011719 57.898438 72.671875 58.902344 70.285156 C 59.613281 71.65625 60.359375 73.019531 61.148438 74.378906 C 61.949219 75.761719 62.78125 77.113281 63.632812 78.4375 Z M 75.238281 88.019531 C 73.636719 86.292969 72.035156 84.382812 70.476562 82.328125 C 71.992188 82.386719 73.535156 82.417969 75.105469 82.417969 C 76.722656 82.417969 78.316406 82.378906 79.882812 82.3125 C 78.34375 84.402344 76.785156 86.316406 75.238281 88.019531 Z M 91.375 70.164062 C 92.433594 72.574219 93.328125 74.902344 94.035156 77.121094 C 91.738281 77.644531 89.261719 78.0625 86.652344 78.378906 C 87.472656 77.078125 88.285156 75.734375 89.082031 74.355469 C 89.886719 72.957031 90.652344 71.558594 91.375 70.164062 Z M 86.152344 72.667969 C 84.914062 74.8125 83.644531 76.855469 82.355469 78.785156 C 80.007812 78.953125 77.582031 79.039062 75.105469 79.039062 C 72.644531 79.039062 70.246094 78.964844 67.941406 78.8125 C 66.597656 76.859375 65.300781 74.808594 64.074219 72.6875 C 62.847656 70.570312 61.71875 68.4375 60.695312 66.316406 C 61.71875 64.191406 62.84375 62.050781 64.0625 59.941406 C 65.285156 57.824219 66.570312 55.78125 67.902344 53.839844 C 70.253906 53.660156 72.667969 53.566406 75.105469 53.566406 C 77.558594 53.566406 79.972656 53.660156 82.324219 53.839844 C 83.636719 55.769531 84.914062 57.804688 86.140625 59.921875 C 87.382812 62.066406 88.523438 64.1875 89.550781 66.269531 C 88.523438 68.382812 87.386719 70.527344 86.152344 72.667969 Z M 93.125 34.949219 C 95.777344 36.476562 96.808594 42.632812 95.140625 50.707031 C 95.035156 51.222656 94.914062 51.746094 94.785156 52.28125 C 91.503906 51.523438 87.9375 50.960938 84.207031 50.609375 C 82.03125 47.515625 79.777344 44.703125 77.511719 42.269531 C 78.121094 41.683594 78.730469 41.125 79.332031 40.601562 C 85.175781 35.519531 90.640625 33.515625 93.125 34.949219 Z M 75.105469 59.171875 C 79.007812 59.171875 82.175781 62.332031 82.175781 66.234375 C 82.175781 70.132812 79.007812 73.292969 75.105469 73.292969 C 71.207031 73.292969 68.039062 70.132812 68.039062 66.234375 C 68.039062 62.332031 71.207031 59.171875 75.105469 59.171875 Z M 75.105469 59.171875 " fill-opacity="1" fill-rule="nonzero"/></g><g fill="#00d8ff" fill-opacity="1"><g transform="translate(16.901267, 139.148357)"><g><path d="M 24.621094 0 L 19.039062 -8.863281 C 19.039062 -8.863281 21.996094 -10.503906 21.996094 -15.265625 C 21.996094 -20.027344 18.710938 -23.308594 11.488281 -23.308594 C 6.566406 -23.308594 1.96875 -22.980469 1.96875 -22.980469 L 1.96875 0 L 10.503906 0 L 10.503906 -7.550781 L 10.832031 -7.550781 L 14.773438 0 Z M 10.503906 -13.460938 L 10.503906 -17.070312 L 11.488281 -17.070312 C 12.640625 -17.070312 13.460938 -16.25 13.460938 -15.265625 C 13.460938 -14.28125 12.640625 -13.460938 11.488281 -13.460938 Z M 10.503906 -13.460938 "/></g></g></g><g fill="#00d8ff" fill-opacity="1"><g transform="translate(40.863648, 139.148357)"><g><path d="M 10.503906 -8.207031 L 19.039062 -8.207031 L 19.039062 -14.773438 L 10.503906 -14.773438 L 10.503906 -16.414062 L 19.699219 -16.414062 L 19.699219 -22.980469 L 1.96875 -22.980469 L 1.96875 0 L 20.355469 0 L 20.355469 -6.566406 L 10.503906 -6.566406 Z M 10.503906 -8.207031 "/></g></g></g><g fill="#00d8ff" fill-opacity="1"><g transform="translate(62.200018, 139.148357)"><g><path d="M 18.21875 -22.980469 L 7.058594 -22.980469 L 0.328125 0 L 9.847656 0 L 10.503906 -3.28125 L 14.773438 -3.28125 L 15.429688 0 L 24.949219 0 C 24.949219 0 18.253906 -22.847656 18.21875 -22.980469 Z M 11.488281 -8.535156 L 12.640625 -14.445312 L 13.789062 -8.535156 Z M 11.488281 -8.535156 "/></g></g></g><g fill="#00d8ff" fill-opacity="1"><g transform="translate(87.47541, 139.148357)"><g><path d="M 1.3125 -11.488281 C 1.3125 -4.761719 6.566406 0.492188 13.460938 0.492188 C 19.699219 0.492188 22.652344 -3.117188 22.652344 -3.117188 L 18.710938 -9.355469 C 18.710938 -9.355469 16.742188 -7.550781 14.445312 -7.550781 C 12.148438 -7.550781 10.503906 -9.191406 10.503906 -11.488281 C 10.503906 -13.789062 12.148438 -15.429688 14.445312 -15.429688 C 16.742188 -15.429688 18.710938 -13.625 18.710938 -13.625 L 22.652344 -19.863281 C 22.652344 -19.863281 19.699219 -23.472656 13.460938 -23.472656 C 6.566406 -23.472656 1.3125 -18.21875 1.3125 -11.488281 Z M 1.3125 -11.488281 "/></g></g></g><g fill="#00d8ff" fill-opacity="1"><g transform="translate(110.781286, 139.148357)"><g><path d="M 0.65625 -22.980469 L 0.65625 -15.429688 L 6.894531 -15.429688 L 6.894531 0 L 15.429688 0 L 15.429688 -15.429688 L 21.667969 -15.429688 L 21.667969 -22.980469 Z M 0.65625 -22.980469 "/></g></g></g><g fill="#ffffff" fill-opacity="1"><g transform="translate(75.585544, 105.269254)"><g/></g></g></svg>