<svg xmlns="http://www.w3.org/2000/svg" xmlns:xlink="http://www.w3.org/1999/xlink" width="200" zoomAndPan="magnify" viewBox="0 0 150 202.499994" height="270" preserveAspectRatio="xMidYMid meet" version="1.0"><defs><g/><clipPath id="id1"><path d="M 0.183594 0 L 149.8125 0 L 149.8125 202 L 0.183594 202 Z M 0.183594 0 " clip-rule="nonzero"/></clipPath><clipPath id="id2"><path d="M 66 37.421875 L 84 37.421875 L 84 73 L 66 73 Z M 66 37.421875 " clip-rule="nonzero"/></clipPath></defs><g clip-path="url(#id1)"><path fill="#d9d9d9" d="M 0.183594 0 L 149.816406 0 L 149.816406 202 L 0.183594 202 Z M 0.183594 0 " fill-opacity="1" fill-rule="nonzero"/><path fill="#ffffff" d="M 0.183594 0 L 149.816406 0 L 149.816406 202 L 0.183594 202 Z M 0.183594 0 " fill-opacity="1" fill-rule="nonzero"/><path fill="#d9d9d9" d="M 0.183594 0 L 149.816406 0 L 149.816406 202 L 0.183594 202 Z M 0.183594 0 " fill-opacity="1" fill-rule="nonzero"/></g><g fill="#5382a1" fill-opacity="1"><g transform="translate(28.556083, 144.308477)"><g><path d="M 7.222656 -10.175781 C 7.222656 -8.371094 6.074219 -7.222656 4.597656 -7.222656 C 3.28125 -7.222656 2.296875 -7.878906 2.296875 -7.878906 L 0 -0.984375 C 0 -0.984375 2.296875 0.984375 6.566406 0.984375 C 11.488281 0.984375 15.757812 -3.28125 15.757812 -10.175781 L 15.757812 -22.980469 L 7.222656 -22.980469 Z M 7.222656 -10.175781 "/></g></g></g><g fill="#5382a1" fill-opacity="1"><g transform="translate(46.281682, 144.308477)"><g><path d="M 18.21875 -22.980469 L 7.058594 -22.980469 L 0.328125 0 L 9.847656 0 L 10.503906 -3.28125 L 14.773438 -3.28125 L 15.429688 0 L 24.949219 0 C 24.949219 0 18.253906 -22.847656 18.21875 -22.980469 Z M 11.488281 -8.535156 L 12.640625 -14.445312 L 13.789062 -8.535156 Z M 11.488281 -8.535156 "/></g></g></g><g fill="#5382a1" fill-opacity="1"><g transform="translate(71.557075, 144.308477)"><g><path d="M 0.328125 -22.980469 L 6.730469 0 L 17.890625 0 L 24.292969 -22.980469 L 14.773438 -22.980469 L 12.3125 -9.519531 L 9.847656 -22.980469 Z M 0.328125 -22.980469 "/></g></g></g><g fill="#5382a1" fill-opacity="1"><g transform="translate(96.175962, 144.308477)"><g><path d="M 18.21875 -22.980469 L 7.058594 -22.980469 L 0.328125 0 L 9.847656 0 L 10.503906 -3.28125 L 14.773438 -3.28125 L 15.429688 0 L 24.949219 0 C 24.949219 0 18.253906 -22.847656 18.21875 -22.980469 Z M 11.488281 -8.535156 L 12.640625 -14.445312 L 13.789062 -8.535156 Z M 11.488281 -8.535156 "/></g></g></g><g fill="#ffffff" fill-opacity="1"><g transform="translate(75.585544, 110.429374)"><g/></g></g><path fill="#5382a1" d="M 66.6875 87.332031 C 66.6875 87.332031 64.222656 88.765625 68.445312 89.253906 C 73.554688 89.835938 76.167969 89.753906 81.800781 88.683594 C 81.800781 88.683594 83.28125 89.613281 85.351562 90.417969 C 72.722656 95.835938 56.769531 90.105469 66.6875 87.332031 " fill-opacity="1" fill-rule="nonzero"/><path fill="#5382a1" d="M 65.144531 80.265625 C 65.144531 80.265625 62.382812 82.316406 66.605469 82.753906 C 72.0625 83.316406 76.375 83.359375 83.839844 81.921875 C 83.839844 81.921875 84.871094 82.96875 86.496094 83.542969 C 71.226562 88.007812 54.21875 83.894531 65.144531 80.265625 " fill-opacity="1" fill-rule="nonzero"/><path fill="#e76f00" d="M 78.15625 68.277344 C 81.265625 71.863281 77.335938 75.089844 77.335938 75.089844 C 77.335938 75.089844 85.238281 71.007812 81.609375 65.898438 C 78.21875 61.132812 75.621094 58.765625 89.691406 50.601562 C 89.691406 50.601562 67.605469 56.117188 78.15625 68.277344 " fill-opacity="1" fill-rule="nonzero"/><path fill="#5382a1" d="M 94.855469 92.558594 C 94.855469 92.558594 96.679688 94.0625 92.847656 95.226562 C 85.558594 97.4375 62.507812 98.105469 56.105469 95.316406 C 53.804688 94.3125 58.121094 92.921875 59.480469 92.628906 C 60.894531 92.324219 61.703125 92.382812 61.703125 92.382812 C 59.144531 90.578125 45.160156 95.921875 54.601562 97.457031 C 80.347656 101.632812 101.535156 95.574219 94.855469 92.558594 " fill-opacity="1" fill-rule="nonzero"/><path fill="#5382a1" d="M 67.875 72.945312 C 67.875 72.945312 56.148438 75.730469 63.722656 76.742188 C 66.921875 77.171875 73.292969 77.074219 79.230469 76.574219 C 84.082031 76.167969 88.957031 75.296875 88.957031 75.296875 C 88.957031 75.296875 87.246094 76.03125 86.007812 76.875 C 74.101562 80.007812 51.101562 78.550781 57.722656 75.347656 C 63.320312 72.636719 67.875 72.945312 67.875 72.945312 " fill-opacity="1" fill-rule="nonzero"/><path fill="#5382a1" d="M 88.90625 84.707031 C 101.011719 78.414062 95.414062 72.367188 91.507812 73.183594 C 90.550781 73.382812 90.125 73.554688 90.125 73.554688 C 90.125 73.554688 90.476562 72.996094 91.15625 72.757812 C 98.886719 70.039062 104.828125 80.773438 88.664062 85.023438 C 88.664062 85.023438 88.851562 84.855469 88.90625 84.707031 " fill-opacity="1" fill-rule="nonzero"/><g clip-path="url(#id2)"><path fill="#e76f00" d="M 81.609375 37.417969 C 81.609375 37.417969 88.3125 44.125 75.253906 54.441406 C 64.78125 62.71875 72.863281 67.4375 75.25 72.828125 C 69.136719 67.308594 64.648438 62.449219 67.660156 57.929688 C 72.078125 51.292969 84.316406 48.074219 81.609375 37.417969 " fill-opacity="1" fill-rule="nonzero"/></g><path fill="#5382a1" d="M 69.0625 101.757812 C 80.683594 102.503906 98.519531 101.347656 98.941406 95.847656 C 98.941406 95.847656 98.128906 97.929688 89.34375 99.585938 C 79.425781 101.453125 67.195312 101.234375 59.945312 100.039062 C 59.945312 100.039062 61.429688 101.269531 69.0625 101.757812 " fill-opacity="1" fill-rule="nonzero"/></svg>